<svg version="1.1"
	 xmlns="http://www.w3.org/2000/svg" xmlns:xlink="http://www.w3.org/1999/xlink" xmlns:a="http://ns.adobe.com/AdobeSVGViewerExtensions/3.0/"
	 x="0px" y="0px" width="356.8px" height="987px" viewBox="0 0 356.8 987"
	 style="overflow:scroll;enable-background:new 0 0 356.8 987;" xml:space="preserve">
<style type="text/css">
	.st0{opacity:0.5;fill:#FFFFFF;}
	.st1{fill:#FF9700;}
	.st2{fill:#F15A24;}
	.st3{fill:#FCEE21;}
	.st4{fill:url(#SVGID_1_);}
	.st5{fill:url(#SVGID_2_);}
	.st6{opacity:0.47;fill:url(#SVGID_3_);enable-background:new    ;}
	.st7{fill:url(#SVGID_4_);}
	.st8{fill:url(#SVGID_5_);}
	.st9{fill:url(#SVGID_6_);}
	.st10{fill:#4EC1FF;}
	.st11{fill:url(#SVGID_7_);}
	.st12{fill:url(#SVGID_8_);}
	.st13{opacity:0.4;fill:#C0ECFF;enable-background:new    ;}
	.st14{fill:url(#SVGID_9_);}
	.st15{opacity:0.29;fill:#FFD24B;enable-background:new    ;}
	.st16{opacity:0.29;fill:#6D210C;enable-background:new    ;}
	.st17{fill:url(#SVGID_10_);}
	.st18{fill:url(#SVGID_11_);}
	.st19{fill:url(#SVGID_12_);}
	.st20{fill:url(#SVGID_13_);}
	.st21{opacity:0.47;fill:url(#SVGID_14_);enable-background:new    ;}
	.st22{fill:url(#SVGID_15_);}
	.st23{fill:url(#SVGID_16_);}
	.st24{fill:url(#SVGID_17_);}
	.st25{fill:url(#SVGID_18_);}
	.st26{fill:url(#SVGID_19_);}
	.st27{fill:url(#SVGID_20_);}
	.st28{fill:url(#SVGID_21_);}
	.st29{fill:url(#SVGID_22_);}
</style>
<defs>
</defs>
<g>
	<path class="st0" d="M356.8,987H0c21.4-41.6,42.3-87.4,61.5-137.4c53.6-139.7,77.1-269,86.7-374.6c23.5,0,46.9,0,70.4,0
		c4.3,102.7,22.4,234.9,77.3,378.3C314.7,902.6,335.5,947.1,356.8,987z"/>
	<g>
		<g>
			<path class="st1" d="M183.4,610.9c-5.1-9.3-9.2-19.1-12.5-29.2c-5.6-17.5-8.2-35.7-7.8-54.2c0.1-2.4-1.4-4.7-3.7-5.6
				c-0.7-0.3-1.4-0.4-2.2-0.4c-1.6,0-3.2,0.6-4.3,1.9c-2.8,3.1-5.1,6.4-7.2,10c-3.1-9.7-5.2-23-1.2-37.2c1.7-6,4.4-11.8,8-17.1h61.7
				c3.6,5.4,6.3,11.1,8,17.1c4,14.2,1.9,27.5-1.2,37.2c-2-3.6-4.4-6.9-7.2-10c-1.2-1.3-2.7-1.9-4.3-1.9c-0.7,0-1.4,0.2-2.2,0.4
				c-2.2,0.9-3.8,3.1-3.7,5.6c0.4,18.5-2.2,36.7-7.8,54.2C192.7,591.7,188.5,601.5,183.4,610.9z"/>
			<path class="st2" d="M211,484.8c2.4,4.1,4.3,8.4,5.6,12.9c2.2,7.6,2.3,15,1.5,21.6c-2.2-2.4-5.4-3.8-8.6-3.8
				c-1.4,0-3,0.3-4.3,0.8c-4.6,1.8-7.4,6.3-7.4,11.1c0.4,17.9-2.2,35.5-7.5,52.3c-2,6.1-4.2,12-6.9,17.9c-2.6-5.8-4.9-11.8-6.9-17.9
				c-5.4-16.9-7.9-34.5-7.5-52.3c0.1-4.8-2.9-9.3-7.4-11.1c-1.4-0.5-2.9-0.8-4.3-0.8c-3.2,0-6.4,1.3-8.6,3.8
				c-0.8-6.6-0.6-13.9,1.5-21.6c1.3-4.5,3.1-8.8,5.6-12.9h27.6H211 M217.3,473.1c-11.3,0-22.6,0-33.8,0c-11.3,0-22.6,0-33.8,0
				c-3.8,5-8,12.2-10.6,21.5c-7.3,25.8,3.7,48,7.1,54.3c0.7-3.1,2.1-7.4,4.5-11.9c2.2-4.1,4.8-7.4,6.8-9.6
				c-0.3,13.7,0.9,33.6,8.1,56.1c5.2,16.2,12,29.3,18,39c6-9.7,12.8-22.8,18-39c7.2-22.5,8.3-42.4,8.1-56.1c2.1,2.2,4.6,5.5,6.8,9.6
				c2.4,4.6,3.8,8.7,4.5,11.9c3.4-6.3,14.4-28.5,7.1-54.3C225.3,485.3,221,478.1,217.3,473.1L217.3,473.1z"/>
			<path class="st3" d="M213.9,479.7c3.4,5.2,6,10.8,7.6,16.6c3.8,13.3,2.1,25.7-0.7,35.1c-1.9-3.1-3.9-5.9-6.4-8.6
				c-1.3-1.4-3.1-2.2-4.8-2.2c-0.8,0-1.6,0.2-2.4,0.4c-2.5,1-4.2,3.5-4.1,6.3c0.4,18.4-2.2,36.5-7.8,53.9c-3.1,9.6-7,18.9-11.8,27.8
				c-4.8-8.9-8.7-18.2-11.8-27.8c-5.6-17.4-8.2-35.5-7.8-53.9c0.1-2.8-1.6-5.2-4.1-6.3c-0.8-0.4-1.6-0.4-2.4-0.4
				c-1.8,0-3.6,0.7-4.8,2.2c-2.4,2.7-4.6,5.6-6.4,8.6c-2.8-9.4-4.5-21.9-0.7-35.1c1.6-5.8,4.2-11.4,7.6-16.6h30.4H213.9
				 M217.3,473.1c-11.3,0-22.6,0-33.8,0s-22.6,0-33.8,0c-3.8,5-8,12.2-10.6,21.5c-7.3,25.8,3.7,48,7.1,54.3
				c0.7-3.1,2.1-7.4,4.5-11.9c2.2-4.1,4.8-7.4,6.8-9.6c-0.3,13.7,0.9,33.6,8.1,56.1c5.2,16.2,12,29.3,18,39c6-9.7,12.8-22.8,18-39
				c7.2-22.5,8.3-42.4,8.1-56.1c2.1,2.2,4.6,5.5,6.8,9.6c2.4,4.6,3.8,8.7,4.5,11.9c3.4-6.3,14.4-28.5,7.1-54.3
				C225.3,485.3,221,478.1,217.3,473.1L217.3,473.1z"/>
		</g>
		<g>
			
				<linearGradient id="SVGID_1_" gradientUnits="userSpaceOnUse" x1="183.4448" y1="-308.8539" x2="183.4448" y2="-254.5304" gradientTransform="matrix(1 0 0 1 0 726)">
				<stop  offset="8.187184e-02" style="stop-color:#401D1B"/>
				<stop  offset="1" style="stop-color:#661311"/>
			</linearGradient>
			<path class="st4" d="M239.2,436.3c-5.8,4.9-12.7,9.9-20.7,13.9c-13.9,6.9-26.1,8.6-35,8.7c-8.9-0.1-21.1-1.8-35-8.7
				c-8-3.9-14.9-8.9-20.7-13.9c-1.2,6.7-2.3,13.6-3.4,20.3c-1.4,10,3.2,18.4,8.6,20.6c33.8,12.4,67.2,12.4,101.1,0
				c5.4-2.2,10.1-10.6,8.6-20.6C241.4,449.8,240.3,443.1,239.2,436.3z"/>
			
				<linearGradient id="SVGID_2_" gradientUnits="userSpaceOnUse" x1="82.1387" y1="-493.1819" x2="284.5453" y2="-493.1819" gradientTransform="matrix(1 0 0 1 0 726)">
				<stop  offset="0" style="stop-color:#FF4240"/>
				<stop  offset="0.176" style="stop-color:#FB413F"/>
				<stop  offset="0.353" style="stop-color:#EF3C3A"/>
				<stop  offset="0.531" style="stop-color:#DB3533"/>
				<stop  offset="0.71" style="stop-color:#BE2A28"/>
				<stop  offset="0.887" style="stop-color:#9A1D1B"/>
				<stop  offset="1" style="stop-color:#7F1311"/>
			</linearGradient>
			<path class="st5" d="M183.4,465.6c11.4-0.1,27.2-1.3,45.1-6.6c16.9-4.9,30.2-11.8,39.6-17.6c5.4-26.3,11.8-65.4,14.3-113.3
				c3.6-70.1,7.5-147.6-29.7-229.8c-10.9-24-30.2-59.3-65-96.6c-2.3-2.5-6.3-2.5-8.6,0c-34.7,37.2-54,72.6-65,96.6
				c-37.2,82.2-33.3,159.7-29.7,229.8c2.4,47.8,9,86.9,14.3,113.3c9.4,5.7,22.7,12.7,39.6,17.6C156.2,464.3,172,465.5,183.4,465.6z"
				/>
			
				<linearGradient id="SVGID_3_" gradientUnits="userSpaceOnUse" x1="161.4303" y1="-493.1819" x2="298.4906" y2="-493.1819" gradientTransform="matrix(1 0 0 1 0 726)">
				<stop  offset="1.007698e-02" style="stop-color:#9A1D1B"/>
				<stop  offset="1" style="stop-color:#7F1311"/>
			</linearGradient>
			<path class="st6" d="M252.7,98.5c-10.9-24-30.2-59.3-65-96.6C186.6,0.6,185,0,183.4,0v465.6l0,0c11.4-0.1,27.2-1.3,45.1-6.6
				c16.9-4.9,30.2-11.8,39.6-17.6c5.4-26.3,11.8-65.4,14.3-113.3C285.9,258.1,289.9,180.7,252.7,98.5z"/>
			
				<linearGradient id="SVGID_4_" gradientUnits="userSpaceOnUse" x1="127.3008" y1="-516.9073" x2="231.4269" y2="-419.5444" gradientTransform="matrix(1 0 0 1 0 726)">
				<stop  offset="0" style="stop-color:#FF7F40"/>
				<stop  offset="0.5401" style="stop-color:#FB413F"/>
				<stop  offset="1" style="stop-color:#7F1311"/>
			</linearGradient>
			<path class="st7" d="M82.5,246.5c-0.3,10.1-0.3,20.2-0.1,30.1c67-13.6,135.1-13.6,202,0c0.2-9.9,0.2-19.9-0.1-30.1
				C217.4,233.5,149.4,233.5,82.5,246.5z"/>
			
				<linearGradient id="SVGID_5_" gradientUnits="userSpaceOnUse" x1="131.8476" y1="-709.1888" x2="193.7141" y2="-690.9395" gradientTransform="matrix(1 0 0 1 0 726)">
				<stop  offset="0" style="stop-color:#FF7F40"/>
				<stop  offset="0.5401" style="stop-color:#FB413F"/>
				<stop  offset="1" style="stop-color:#7F1311"/>
			</linearGradient>
			<path class="st8" d="M226.8,51.5c-10.1-15.5-23-32.3-39-49.6c-2.3-2.5-6.3-2.5-8.6,0c-16.1,17.2-28.9,34.1-39,49.6
				C168.9,38.3,198,38.3,226.8,51.5z"/>
			
				<linearGradient id="SVGID_6_" gradientUnits="userSpaceOnUse" x1="161.129" y1="-632.6545" x2="216.8939" y2="-590.9209" gradientTransform="matrix(1 0 0 1 0 726)">
				<stop  offset="0" style="stop-color:#FF7F40"/>
				<stop  offset="0.3513" style="stop-color:#FB463F"/>
				<stop  offset="0.5914" style="stop-color:#FB413F"/>
				<stop  offset="1" style="stop-color:#7F1311"/>
			</linearGradient>
			<circle class="st9" cx="183.4" cy="110" r="34.8"/>
			<circle class="st10" cx="183.4" cy="110" r="30.2"/>
			
				<linearGradient id="SVGID_7_" gradientUnits="userSpaceOnUse" x1="9.8554" y1="-317.1901" x2="91.2317" y2="-317.1901" gradientTransform="matrix(1 0 0 1 0 726)">
				<stop  offset="0.4074" style="stop-color:#BE2A28"/>
				<stop  offset="0.887" style="stop-color:#9A1D1B"/>
				<stop  offset="1" style="stop-color:#7F1311"/>
			</linearGradient>
			<path class="st11" d="M84.4,328.2c-0.6-11.6-1.2-23.3-1.6-35.4c-0.1-0.7-0.1-1.4-0.2-2.1c-16.2,11.8-36.2,30.5-51.2,58.2
				c-4.8,8.7-37.3,71.1-12.2,138.8c3.2,8.7,10.9,28.8,14.5,35.4c3.5,6.1,12.7,4.4,13.7-2.6c1.3-8.8-1.7-28.9-1-34.7
				c3.2-27.3,3.1-37.5,9.2-54.2c7.7-20.6,16.1-26.9,22-29.8c5-2.4,9.9-3.1,13.3-3.4C88.4,378,85.8,354.4,84.4,328.2z"/>
			
				<linearGradient id="SVGID_8_" gradientUnits="userSpaceOnUse" x1="275.5179" y1="-317.1901" x2="356.8495" y2="-317.1901" gradientTransform="matrix(1 0 0 1 0 726)">
				<stop  offset="0.4074" style="stop-color:#BE2A28"/>
				<stop  offset="0.887" style="stop-color:#9A1D1B"/>
				<stop  offset="1" style="stop-color:#7F1311"/>
			</linearGradient>
			<path class="st12" d="M335.3,349c-15-27.6-35-46.2-51.2-58.2c-0.1,0.7-0.1,1.4-0.2,2.1c-0.4,11.9-1,23.8-1.6,35.4
				c-1.3,26.2-3.9,49.8-6.8,70.1c3.5,0.2,8.3,0.9,13.3,3.4c5.9,2.9,14.3,9.2,22,29.8c6.2,16.7,6.1,27,9.2,54.2
				c0.7,5.8-2.2,25.8-1,34.7c1,7,10.2,8.7,13.7,2.6c3.8-6.5,11.4-26.7,14.5-35.4C372.6,420,340,357.7,335.3,349z"/>
			<path class="st13" d="M162.3,131.6c2.5-22.4,20.9-40.1,43.7-41.6c-5.6-6.2-13.6-10.1-22.5-10.1c-16.7,0-30.2,13.6-30.2,30.2
				C153.2,118.5,156.7,126.1,162.3,131.6z"/>
			
				<linearGradient id="SVGID_9_" gradientUnits="userSpaceOnUse" x1="168.9948" y1="-545.9905" x2="205.0695" y2="-518.9928" gradientTransform="matrix(1 0 0 1 0 726)">
				<stop  offset="0" style="stop-color:#FF7F40"/>
				<stop  offset="0.3513" style="stop-color:#FB463F"/>
				<stop  offset="0.5914" style="stop-color:#FB413F"/>
				<stop  offset="1" style="stop-color:#7F1311"/>
			</linearGradient>
			<circle class="st14" cx="183.4" cy="190.8" r="22.5"/>
			<circle class="st10" cx="183.4" cy="190.8" r="19.6"/>
			<path class="st13" d="M169.7,204.7c1.6-14.5,13.6-25.9,28.3-26.9c-3.6-4-8.8-6.6-14.5-6.6c-10.8,0-19.6,8.7-19.6,19.6
				C163.9,196.3,166.1,201.2,169.7,204.7z"/>
			<path class="st15" d="M181.2,6.6c-7.8,10.1-15.6,20-23.4,30.1c3.9-0.7,7.8-1.4,11.8-2.2C173.4,25.2,177.3,15.9,181.2,6.6z"/>
			<path class="st16" d="M234,92.4c8.3,15.2,19,38.3,26.4,68.1c6,24.5,7,42.8,8.8,77.7c0.6,13.3,2.2,48.2,0,96.8
				c-1.2,27-3.7,61-8.8,100.4c-3.9,1-7.8,2-11.8,3c5.2-53.9,6.9-99.6,7.4-134.1c0.5-45.5,0.9-80.1-5.1-126.1
				C246.2,142.3,239.4,112.8,234,92.4z"/>
			<path class="st15" d="M131.4,88.8c-8.3,15.2-19,38.3-26.4,68.1c-6,24.5-7,42.8-8.8,77.7c-0.6,13.3-2.2,48.2,0,96.8
				c1.2,27,3.7,61,8.8,100.4c3.9,1,7.8,2,11.8,3c-5.2-53.9-6.9-99.6-7.4-134.1c-0.5-45.5-0.9-80.1,5.1-126.1
				C119.2,138.6,126,109.1,131.4,88.8z"/>
			
				<linearGradient id="SVGID_10_" gradientUnits="userSpaceOnUse" x1="172.2883" y1="-345.1262" x2="202.4772" y2="-253.1463" gradientTransform="matrix(1 0 0 1 0 726)">
				<stop  offset="0" style="stop-color:#FF7F40"/>
				<stop  offset="0.5401" style="stop-color:#FB413F"/>
				<stop  offset="1" style="stop-color:#7F1311"/>
			</linearGradient>
			<path class="st17" d="M228.5,459.1c16.9-4.9,30.2-11.8,39.6-17.6c2-9.8,4.1-21.4,6.2-34.5c-60.2,21.9-121.4,21.9-181.7,0
				c2.1,13.1,4.2,24.7,6.2,34.5c9.4,5.7,22.7,12.7,39.6,17.6c17.9,5.2,33.7,6.6,45.1,6.6C194.8,465.5,210.6,464.3,228.5,459.1z"/>
			
				<linearGradient id="SVGID_11_" gradientUnits="userSpaceOnUse" x1="168.9682" y1="-317.1772" x2="197.8526" y2="-317.1772" gradientTransform="matrix(1 0 0 1 0 726)">
				<stop  offset="0.4074" style="stop-color:#BE2A28"/>
				<stop  offset="0.887" style="stop-color:#9A1D1B"/>
				<stop  offset="1" style="stop-color:#7F1311"/>
			</linearGradient>
			<path class="st18" d="M183.4,526.8L183.4,526.8c8.1,0,7.3-6.6,7.3-14.7l7.1-200c0.2-4.9-1.4-9.8-4.6-13.6l-4-5
				c-3-3.6-8.5-3.6-11.5,0l-4.1,5c-3.1,3.8-4.8,8.6-4.6,13.6l6.4,200.1C175.4,520.2,175.4,526.8,183.4,526.8z"/>
			<path class="st15" d="M183.4,298.3c-1.5,73.8-3.1,110.7-4.4,110.7c-1.3,0-2.5-32.5-3.7-97.5C178,307.1,180.7,302.7,183.4,298.3z"
				/>
			<path class="st15" d="M63.1,320.3c-14.5,17.9-23.2,34.7-28.5,46.9C29.6,378.6,23,394,20.6,415.6c-0.8,7.4-2.1,23.4,1.4,43.3
				c1.8,10.1,4.3,18.6,6.6,25c-3.8-35.1,1.2-61.4,5.1-76.2c5-18.9,12.7-35.8,15.3-41.7c5.3-11.5,10.5-20.9,14.6-27.8
				C63.5,332.1,63.3,326.3,63.1,320.3z"/>
			<path class="st16" d="M303.8,320.3c14.5,17.9,23.2,34.7,28.5,46.9c4.9,11.3,11.5,26.7,13.9,48.4c0.8,7.4,2.1,23.4-1.4,43.3
				c-1.8,10.1-4.3,18.6-6.6,25c3.8-35.1-1.2-61.4-5.1-76.2c-5-18.9-12.7-35.8-15.3-41.7c-5.3-11.5-10.5-20.9-14.6-27.8
				C303.3,332.1,303.5,326.3,303.8,320.3z"/>
		</g>
	</g>
</g>
</svg>
