<svg version="1.1"
	 xmlns="http://www.w3.org/2000/svg" xmlns:xlink="http://www.w3.org/1999/xlink" xmlns:a="http://ns.adobe.com/AdobeSVGViewerExtensions/3.0/"
	 x="0px" y="0px" width="600px" height="600px" viewBox="0 0 600 600" style="enable-background:new 0 0 600 600;"
	 xml:space="preserve">
<style type="text/css">
	.st0{fill:none;}
	.st1{fill:#CFE1AF;}
	.st2{fill:#D3D3D3;}
	.st3{fill:#544E4A;}
	.st4{fill:#B2AFA2;}
	.st5{fill:#FFFFFF;}
	.st6{fill:#F06349;}
</style>
<defs>
</defs>
<rect class="st0" width="600" height="600"/>
<path class="st1" d="M574.1,164.1c0-0.1,0-0.1,0-0.2c0,0,0,0,0,0C574.1,163.9,574.1,164,574.1,164.1
	C574.1,164.1,574.1,164.1,574.1,164.1z"/>
<g>
	<path class="st2" d="M202.3,557.6c3.3-13.4,15.1-21.2,28.4-21.7c16.7-0.5,33.5,0,50.2,0h71.3c5.8,0,11.4-0.2,17.1,0
		c6.7,0.2,13,2.5,17.9,6.4v-32.4c-9.2,4.3-18.7,7.9-28.5,10.8c-70.5,20.7-148.1,1.5-201-48.2v29.3v95.5c0,0.9,0,1.9,0,2.8h43.6
		c0.1-6.9,0.1-13.9,0.1-20.8C201.5,572.2,200.7,564.4,202.3,557.6z"/>
	<path class="st3" d="M157.7,472.5c-0.1-0.1-0.1-0.1-0.2-0.2v100.9c0,8,0.1,16,0.2,24v-95.5V472.5z"/>
	<path class="st2" d="M141,469.3L141,469.3C141,469.3,141,469.3,141,469.3c-1.3-20.2-32-5.5-39.8,1.7c-9.6,8.6-14.6,20.6-14.8,33.3
		c-0.2,13.8,0,27.4,0,41.1c0,18.2-0.2,36.4-0.2,54.6H141V469.3L141,469.3z"/>
	<path class="st3" d="M86.2,600c0-18.2,0.2-36.5,0.2-54.6c0-13.8-0.2-27.4,0-41.1c0.2-12.8,5.1-24.7,14.8-33.3
		c7.8-7.1,38.5-21.9,39.8-1.7c0,0,0,0,0,0l0,0l0,0V600h16.8c0-0.9,0-1.9,0-2.8c-0.1-8-0.2-16-0.2-24V472.3
		c-5.9-5.6-11.5-11.5-16.7-17.8c-3-3.6-5.9-7.4-8.7-11.2c-16.7-0.7-37.2,9-47.2,20.6c-12.8,14.9-15.1,32.3-15.1,51.1v85H86.2z"/>
	<path class="st4" d="M442.1,472.6c-16.1,15.2-34.7,27.8-54.9,37.3v32.4c5.4,4.2,9.2,10.2,10.3,17.5c1,6.6,0.3,13.9,0.3,20.7V600
		h44.3V473.7C442.1,473.3,442.1,472.9,442.1,472.6z"/>
	<path class="st2" d="M119.1,259c-25,73-3.3,154.9,54.2,205.9c55.4,49.2,138,61.8,205.4,30.8c28-12.9,51.8-32,70.3-55.3
		c-19.1,23.6-43.6,42.7-71.6,55.6c15.2-18.9,27.9-40.2,37.5-63.3c-5.4,3-11.4,4.5-18.7,4.5c-22.4,0-44.9,0.2-67.3,0.2
		c-30.5,0.2-61.2,0.2-91.7,0.3c-9.8,0.2-19.7,0.2-29.5,0.2c-9.6,0.2-18.7-0.3-26.7-6.6c-9.3-7.3-16.7-18.7-22.9-28.7
		c-6.6-10.6-11.9-22.1-15.9-34c-8.5-24.7-10.6-51.6-6.8-77.4c3.6-25.7,13.6-51.6,29.4-72.3c7.6-9.8,18.2-13.1,30-13.1H353
		c16.4,0,33-0.3,49.4-0.1c-15.1-27.1-35-50.6-58.4-69.6c-1.7-1.3-3.8-0.8-5.5-2.2c26,5.8,49.7,16.6,70.8,31.5
		c7.3,5.2,14.3,10.9,20.9,17c-30.8-29.4-71.2-48.7-116.1-52c-44.6-3-91.7,9.3-127.7,36.1c-3,0.3-3,0.5,0,0.7c-1.5,1-2.8,2.2-4.1,3.2
		c-2,1.5-3.8,3.2-5.6,4.6c-3,2.7-6,5.3-9,8.1c-7.1,6.8-13.8,14.1-19.7,21.9C135.7,221.4,125.7,239.6,119.1,259z M280.1,181.9h43.3
		c10.6,0,10.6,16.6,0,16.6h-43.3C269.3,198.5,269.5,181.9,280.1,181.9z"/>
	<path class="st5" d="M368.5,552.3c-14.6-0.8-29.3,0-43.9,0h-88.9c-5.3,0-10.9-0.5-14.9,4.1c-4,4.8-2.7,12.9-2.7,18.7V600h162.8
		v-32.6C380.9,559.1,377.6,552.8,368.5,552.3z M258.4,593.3c-9.5,0-17.2-7.7-17.2-17.2c0-9.5,7.7-17.2,17.2-17.2
		c9.5,0,17.2,7.7,17.2,17.2C275.6,585.6,267.9,593.3,258.4,593.3z"/>
	<path class="st3" d="M397.5,559.8c-1.1-7.3-4.9-13.3-10.3-17.5c-4.9-3.9-11.2-6.1-17.9-6.4c-5.6-0.2-11.3,0-17.1,0h-71.3
		c-16.7,0-33.5-0.5-50.2,0c-13.3,0.5-25,8.3-28.4,21.7c-1.7,6.8-0.8,14.6-0.8,21.6c0,6.9-0.1,13.9-0.1,20.8h16.7v-24.8
		c0-5.8-1.3-13.9,2.7-18.7c4-4.6,9.6-4.1,14.9-4.1h88.9c14.6,0,29.3-0.8,43.9,0c9.1,0.5,12.4,6.8,12.4,15.1V600h16.9v-19.5
		C397.8,573.7,398.5,566.4,397.5,559.8z"/>
	<circle class="st6" cx="258.4" cy="576" r="17.2"/>
	<path class="st4" d="M338.6,134c1.7,1.3,3.8,0.8,5.5,2.2c23.4,18.9,43.3,42.4,58.4,69.6c2,0,4,0,5.9,0.1
		c20.9,0.5,31.2,17.7,39.6,34.5c11.7,23.4,17.8,48.9,18.1,75.1c0,0.1,0,0.1,0,0.2c0,0.1,0,0.1,0,0.2c0,0.1,0,0.1,0,0.2
		c0,0.3,0,0.6,0,0.8c-0.2,12.5-1.6,25.1-4.4,37.3c-5.6,24.4-17.1,46.9-32.7,66.3c-4.4,5.4-8.9,9.6-14.1,12.4
		c-9.6,23.2-22.3,44.4-37.5,63.3c28-12.9,52.5-32.1,71.6-55.6c26.4-33.3,41.7-75,42-119c-0.4-53.8-23.6-103.7-60.7-139.1
		c-6.6-6.1-13.5-11.7-20.9-17C388.4,150.6,364.6,139.8,338.6,134z"/>
	<path class="st3" d="M280.1,198.5h43.3c10.6,0,10.6-16.6,0-16.6h-43.3C269.5,181.9,269.3,198.5,280.1,198.5z"/>
	<path class="st3" d="M466.1,315.5c0-0.1,0-0.1,0-0.2c-0.2-26.2-6.4-51.7-18.1-75.1c-8.5-16.7-18.7-34-39.6-34.5c-2,0-4-0.1-5.9-0.1
		c-16.5-0.2-33,0.1-49.4,0.1H194.7c-11.8,0-22.4,3.3-30,13.1c-15.8,20.7-25.7,46.6-29.4,72.3c-3.8,25.9-1.7,52.7,6.8,77.4
		c4,11.9,9.3,23.4,15.9,34c6.1,9.9,13.6,21.4,22.9,28.7c8,6.3,17.1,6.8,26.7,6.6c9.8,0,19.7,0,29.5-0.2c30.5-0.2,61.2-0.2,91.7-0.3
		c22.4,0,44.9-0.2,67.3-0.2c7.3,0,13.3-1.5,18.7-4.5c5.2-2.8,9.7-7,14.1-12.4c15.6-19.4,27-42,32.7-66.3c2.9-12.2,4.2-24.8,4.4-37.3
		c0-0.3,0-0.6,0-0.8c0-0.1,0-0.1,0-0.2C466.1,315.6,466.1,315.6,466.1,315.5z M433.5,248c-0.7-1.4-1.4-2.7-2.2-4.1
		c-1.9-3.4-3.8-7.1-6-10.5c2.3,3.4,4.2,7.1,6,10.5C432.1,245.3,432.8,246.6,433.5,248z M425.3,233.3c-1.1-1.6-2.3-3.2-3.6-4.6
		C423,230.1,424.2,231.6,425.3,233.3z M420.8,227.8c-0.6-0.6-1.1-1.1-1.8-1.6C419.7,226.7,420.3,227.3,420.8,227.8z M178.3,330.1
		c0.8,6-1.5,12.1-8.1,13.9c-5.3,1.5-13.1-1.8-13.9-8c-1.2-7.5-1.8-14.8-1.5-22.2c0.3-6.3,5.1-11.4,11.4-11.4
		c6.1,0,11.6,5.3,11.4,11.4C177.4,319.4,177.6,325.2,178.3,330.1z M162.7,277.4c2.5-13.4,7.5-26,14.3-37.8
		c7.3-12.6,27-1.2,19.7,11.4c-6,10.3-9.8,20.7-12.1,32.3C181.8,297.8,159.9,291.7,162.7,277.4z M405,222.2
		C405,222.2,405,222.2,405,222.2C405,222.2,405,222.2,405,222.2z M243.7,221.9c-5.8,0-11.5,0-17.3,0
		C232.2,221.9,237.9,221.9,243.7,221.9z M173.8,396.6c-13.1-20.4-21.2-43.9-23-68.3c-2-24.7,2-49.7,11.9-72.5
		c4.6-10.4,10.6-25.8,21.3-31.4c-10.7,5.6-16.7,21-21.3,31.4c-9.9,22.7-13.9,47.8-11.9,72.5C152.6,352.7,160.7,376.2,173.8,396.6
		c2.8,4.3,5.7,9,9.1,13.2C179.5,405.6,176.6,400.9,173.8,396.6z M428.7,392.7c0.4-0.7,0.8-1.4,1.1-2.1
		C429.5,391.2,429.1,392,428.7,392.7z M430.9,388.5c0.5-0.9,1-1.8,1.4-2.7c0.7-1.3,1.4-2.7,2.1-4.1c-0.7,1.4-1.4,2.7-2.1,4.1
		C431.9,386.7,431.4,387.6,430.9,388.5z"/>
	<path class="st4" d="M177.6,313.9c0.2-6.1-5.3-11.4-11.4-11.4c-6.3,0-11.1,5.1-11.4,11.4c-0.3,7.5,0.3,14.8,1.5,22.2
		c0.8,6.1,8.6,9.5,13.9,8c6.6-1.8,9-8,8.1-13.9C177.6,325.2,177.4,319.4,177.6,313.9z"/>
	<path class="st4" d="M196.7,251c7.3-12.6-12.4-24-19.7-11.4c-6.8,11.8-11.8,24.4-14.3,37.8c-2.8,14.3,19.1,20.4,21.9,6
		C186.9,271.8,190.7,261.3,196.7,251z"/>
	<path class="st2" d="M466.3,459.8c0.9-0.3,1.6-0.6,2.2-0.9c-1.3,0.3-2.5,0.6-3.5,1c-9.1,3.8-6.5,18.9-6.5,26.9V600h40v-92.8
		C498.5,484.8,484.9,465.8,466.3,459.8z"/>
	<path class="st2" d="M512.8,488.7c-1.4-10.6-7.4-20.1-17.1-25.4c-1.4-0.8-3.1-1.5-4.9-2.1C502.3,466,510.3,475.7,512.8,488.7z"/>
	<path class="st3" d="M442.1,472.6c0,0.4,0,0.8,0,1.2V600h16.4V486.8c0-8-2.7-23,6.5-26.9c1.1-0.5,2.3-0.8,3.5-1
		c2.1-0.8,3-1.1,4.9-1.1c6.3,0,12.2,1.2,17.3,3.4c1.8,0.6,3.5,1.3,4.9,2.1c9.7,5.3,15.7,14.8,17.1,25.4c0.7,3.8,0.9,7.8,0.6,12.1
		V600h16.4c0.1-35.7,0.8-71.4,0-106.9c-0.5-28.4-22.6-50.2-51.1-50.4c-3.5,0-7.1,0-10.6,0.3C460.4,453.7,451.7,463.5,442.1,472.6z"
		/>
	<path class="st4" d="M512.8,488.7c-2.4-13-10.5-22.7-22-27.5c-5.2-2.1-11-3.3-17.3-3.4c-1.9,0-2.9,0.3-4.9,1.1
		c-0.6,0.2-1.3,0.5-2.2,0.9c18.6,6,32.2,25,32.2,47.4V600h14.9v-99.2C513.7,496.5,513.5,492.4,512.8,488.7z"/>
	<g>
		<path class="st3" d="M308.6,124c0.4-12.9,0.7-25.9,1-38.8C304.6,88,298,88,293,84.8c-0.3,10.1-0.5,20.3-0.8,30.5
			C297.8,117.9,303.3,120.8,308.6,124z"/>
		<path class="st3" d="M309.7,85.1c1.1-0.6,2.2-1.4,3.2-2.3c6-5.6,6.3-14.4,2.1-20.9c-0.4-0.9-1-1.8-1.7-2.5c-6.6-5.9-16.5-6.4-23,0
			c-6.3,6.3-6.1,16.6,0,23c0.8,0.9,1.8,1.6,2.8,2.2C298,88,304.6,88,309.7,85.1z M301.3,71c0,0,0.1,0.1,0.1,0.1c0,0,0,0,0,0
			C301.3,71.1,301.3,71.1,301.3,71C301.3,71,301.3,71,301.3,71z"/>
	</g>
	<path class="st3" d="M140.8,454.5c5.2,6.3,10.8,12.2,16.7,17.8c0.1,0.1,0.1,0.1,0.2,0.2c52.9,49.7,130.5,68.9,201,48.2
		c9.8-2.9,19.3-6.5,28.5-10.8c20.2-9.5,38.8-22.1,54.9-37.3c9.6-9,18.3-18.9,26.1-29.5c19.4-26.5,32.6-57.6,37.4-90.9
		c1.5-10.3,2.3-20.6,2.3-31c0-0.8-0.2-1.6-0.4-2.3c-0.3-16.4-2.6-32.6-6.6-48.1c-1.6-6-3.4-12-5.5-17.8
		c-22.4-63-74.1-113.8-140.9-132c-47.6-12.9-98.8-8.3-143.3,12.4c-5.3,2.5-10.4,5.1-15.4,8.1c-2.7,1.5-5.3,3.2-8,4.8
		c-1,0.7-2.3,1.3-3.3,2.2c-0.7,0.5-1.5,1-2.2,1.5c0.7,0.2,1.3,0.3,2,0.3c-0.5,0.5-2.5,0.3-3.2,0.7l-4,2.5c-1.8,1.3-3.6,2.8-5.5,4.3
		c-4.5,3.5-8.8,7.1-12.9,10.9c-15.9,14.8-29.7,32.2-40.1,51.1c-6,10.7-10.9,21.8-14.8,33.1c-2,5.9-3.8,11.9-5.3,17.9
		c-14.4,58.8-2.5,122.6,33.5,172.4C134.9,447.1,137.8,450.9,140.8,454.5z M167.8,183.2c3-2.8,6-5.5,9-8.1c1.8-1.5,3.6-3.2,5.6-4.6
		c1.3-1,2.7-2.2,4.1-3.2c-3-0.2-3-0.3,0-0.7c36-26.9,83.1-39.1,127.7-36.1c44.8,3.2,85.2,22.6,116.1,52
		c37.1,35.4,60.3,85.3,60.7,139.1c-0.3,43.9-15.6,85.7-42,119c-18.4,23.3-42.3,42.4-70.3,55.3c-67.5,31-150.1,18.4-205.4-30.8
		C115.8,413.9,94,332,119.1,259c6.6-19.4,16.6-37.6,29-53.9C154.1,197.3,160.7,190,167.8,183.2z"/>
</g>
</svg>
